# xmcd
#
# Track frame offsets:
#	150
#	15062
#	28286
#	46887
#	62577
#	77130
#	94109
#	109937
#	129765
#	146475
#	165714
#	181356
#	198347
#	215608
#	232805
#
# Disc length: 3274 seconds
#
# Revision: 1
# Processed by: cddbd v1.5.2PL0 Copyright (c) Steve Scherf et al.
# Submitted via: audiograbber 1.83.01
#
DISCID=be0cc80f
DTITLE=Anderson, John - CB90092R
DYEAR=1900
DGENRE=Karaoke
TTITLE0=Swingin'
TTITLE1=Straight Tequila Night
TTITLE2=Seminole Wind
TTITLE3=Let Go Of The Stone
TTITLE4=Money In The Bank
TTITLE5=I Wish I Could Have Been There
TTITLE6=Bend Until It Breaks
TTITLE7=Mississippi Moon
TTITLE8=Somebody Slap Me
TTITLE9=Small Town
TTITLE10=Big Revival, The
TTITLE11=You Ain't Hurt Nothin' Yet
TTITLE12=Nobody's Got It All
TTITLE13=When It Comes To You
TTITLE14=I Fell In The Water
EXTD=
EXTT0=
EXTT1=
EXTT2=
EXTT3=
EXTT4=
EXTT5=
EXTT6=
EXTT7=
EXTT8=
EXTT9=
EXTT10=
EXTT11=
EXTT12=
EXTT13=
EXTT14=
PLAYORDER=
